<mxfile host="65bd71144e">
    <diagram id="NHgh3wis6Hr0sNBWNUlg" name="Page-1">
        <mxGraphModel dx="719" dy="746" grid="1" gridSize="10" guides="1" tooltips="1" connect="1" arrows="0" fold="1" page="1" pageScale="1" pageWidth="827" pageHeight="1169" math="0" shadow="0">
            <root>
                <mxCell id="0"/>
                <mxCell id="1" parent="0"/>
                <mxCell id="10" value="Entities / Values" style="shape=note;whiteSpace=wrap;html=1;backgroundOutline=1;darkOpacity=0.05;" vertex="1" parent="1">
                    <mxGeometry x="130" y="430" width="170" height="60" as="geometry"/>
                </mxCell>
                <mxCell id="9" value="Business Logic" style="shape=note;whiteSpace=wrap;html=1;backgroundOutline=1;darkOpacity=0.05;" vertex="1" parent="1">
                    <mxGeometry x="130" y="290" width="170" height="60" as="geometry"/>
                </mxCell>
                <mxCell id="8" value="GQL / PROTO&lt;br&gt;DTOs" style="shape=note;whiteSpace=wrap;html=1;backgroundOutline=1;darkOpacity=0.05;" vertex="1" parent="1">
                    <mxGeometry x="120" y="160" width="170" height="60" as="geometry"/>
                </mxCell>
                <mxCell id="2" value="Domain" style="rounded=1;whiteSpace=wrap;html=1;" vertex="1" parent="1">
                    <mxGeometry x="145" y="470" width="120" height="60" as="geometry"/>
                </mxCell>
                <mxCell id="3" value="Infrastructure" style="rounded=1;whiteSpace=wrap;html=1;" vertex="1" parent="1">
                    <mxGeometry x="354" y="150" width="120" height="170" as="geometry"/>
                </mxCell>
                <mxCell id="5" value="Application" style="rounded=1;whiteSpace=wrap;html=1;" vertex="1" parent="1">
                    <mxGeometry x="145" y="340" width="120" height="60" as="geometry"/>
                </mxCell>
                <mxCell id="4" value="Presentation" style="rounded=1;whiteSpace=wrap;html=1;" vertex="1" parent="1">
                    <mxGeometry x="145" y="210" width="120" height="60" as="geometry"/>
                </mxCell>
                <mxCell id="11" value="Presentation (API)" style="rounded=1;whiteSpace=wrap;html=1;" vertex="1" parent="1">
                    <mxGeometry x="100" y="680" width="130" height="60" as="geometry"/>
                </mxCell>
                <mxCell id="12" value="Triggers Command&lt;br&gt;[Application]" style="rounded=1;whiteSpace=wrap;html=1;" vertex="1" parent="1">
                    <mxGeometry x="265" y="640" width="130" height="60" as="geometry"/>
                </mxCell>
                <mxCell id="13" value="Triggers Query&lt;br&gt;[Application]" style="rounded=1;whiteSpace=wrap;html=1;" vertex="1" parent="1">
                    <mxGeometry x="265" y="720" width="130" height="60" as="geometry"/>
                </mxCell>
                <mxCell id="14" value="Fetch / Persist&amp;nbsp;&lt;br&gt;(Repository)&lt;br&gt;[Infrastructure]" style="rounded=1;whiteSpace=wrap;html=1;" vertex="1" parent="1">
                    <mxGeometry x="630" y="680" width="130" height="60" as="geometry"/>
                </mxCell>
                <mxCell id="15" value="Entity&lt;br&gt;[Domain]" style="rounded=1;whiteSpace=wrap;html=1;" vertex="1" parent="1">
                    <mxGeometry x="440" y="680" width="130" height="60" as="geometry"/>
                </mxCell>
            </root>
        </mxGraphModel>
    </diagram>
</mxfile>